<svg width="1318" height="684" viewBox="0 0 1318 684" fill="none" xmlns="http://www.w3.org/2000/svg">
<circle cx="87" cy="87" r="87" fill="#EBF6FF"/>
<path fill-rule="evenodd" clip-rule="evenodd" d="M1140.5 334C1141.88 334 1143 332.881 1143 331.5C1143 330.119 1141.88 329 1140.5 329C1139.12 329 1138 330.119 1138 331.5C1138 332.881 1139.12 334 1140.5 334ZM1140.5 359C1141.88 359 1143 357.881 1143 356.5C1143 355.119 1141.88 354 1140.5 354C1139.12 354 1138 355.119 1138 356.5C1138 357.881 1139.12 359 1140.5 359ZM1143 381.5C1143 382.881 1141.88 384 1140.5 384C1139.12 384 1138 382.881 1138 381.5C1138 380.119 1139.12 379 1140.5 379C1141.88 379 1143 380.119 1143 381.5ZM1140.5 409C1141.88 409 1143 407.881 1143 406.5C1143 405.119 1141.88 404 1140.5 404C1139.12 404 1138 405.119 1138 406.5C1138 407.881 1139.12 409 1140.5 409ZM1143 431.5C1143 432.881 1141.88 434 1140.5 434C1139.12 434 1138 432.881 1138 431.5C1138 430.119 1139.12 429 1140.5 429C1141.88 429 1143 430.119 1143 431.5ZM1140.5 459C1141.88 459 1143 457.881 1143 456.5C1143 455.119 1141.88 454 1140.5 454C1139.12 454 1138 455.119 1138 456.5C1138 457.881 1139.12 459 1140.5 459ZM1143 481.5C1143 482.881 1141.88 484 1140.5 484C1139.12 484 1138 482.881 1138 481.5C1138 480.119 1139.12 479 1140.5 479C1141.88 479 1143 480.119 1143 481.5ZM1140.5 509C1141.88 509 1143 507.881 1143 506.5C1143 505.119 1141.88 504 1140.5 504C1139.12 504 1138 505.119 1138 506.5C1138 507.881 1139.12 509 1140.5 509ZM1143 531.5C1143 532.881 1141.88 534 1140.5 534C1139.12 534 1138 532.881 1138 531.5C1138 530.119 1139.12 529 1140.5 529C1141.88 529 1143 530.119 1143 531.5ZM1140.5 559C1141.88 559 1143 557.881 1143 556.5C1143 555.119 1141.88 554 1140.5 554C1139.12 554 1138 555.119 1138 556.5C1138 557.881 1139.12 559 1140.5 559ZM1143 581.5C1143 582.881 1141.88 584 1140.5 584C1139.12 584 1138 582.881 1138 581.5C1138 580.119 1139.12 579 1140.5 579C1141.88 579 1143 580.119 1143 581.5ZM1140.5 609C1141.88 609 1143 607.881 1143 606.5C1143 605.119 1141.88 604 1140.5 604C1139.12 604 1138 605.119 1138 606.5C1138 607.881 1139.12 609 1140.5 609ZM1143 631.5C1143 632.881 1141.88 634 1140.5 634C1139.12 634 1138 632.881 1138 631.5C1138 630.119 1139.12 629 1140.5 629C1141.88 629 1143 630.119 1143 631.5ZM1140.5 659C1141.88 659 1143 657.881 1143 656.5C1143 655.119 1141.88 654 1140.5 654C1139.12 654 1138 655.119 1138 656.5C1138 657.881 1139.12 659 1140.5 659ZM1143 681.5C1143 682.881 1141.88 684 1140.5 684C1139.12 684 1138 682.881 1138 681.5C1138 680.119 1139.12 679 1140.5 679C1141.88 679 1143 680.119 1143 681.5ZM1240.5 334C1241.88 334 1243 332.881 1243 331.5C1243 330.119 1241.88 329 1240.5 329C1239.12 329 1238 330.119 1238 331.5C1238 332.881 1239.12 334 1240.5 334ZM1243 356.5C1243 357.881 1241.88 359 1240.5 359C1239.12 359 1238 357.881 1238 356.5C1238 355.119 1239.12 354 1240.5 354C1241.88 354 1243 355.119 1243 356.5ZM1240.5 384C1241.88 384 1243 382.881 1243 381.5C1243 380.119 1241.88 379 1240.5 379C1239.12 379 1238 380.119 1238 381.5C1238 382.881 1239.12 384 1240.5 384ZM1243 406.5C1243 407.881 1241.88 409 1240.5 409C1239.12 409 1238 407.881 1238 406.5C1238 405.119 1239.12 404 1240.5 404C1241.88 404 1243 405.119 1243 406.5ZM1240.5 434C1241.88 434 1243 432.881 1243 431.5C1243 430.119 1241.88 429 1240.5 429C1239.12 429 1238 430.119 1238 431.5C1238 432.881 1239.12 434 1240.5 434ZM1243 456.5C1243 457.881 1241.88 459 1240.5 459C1239.12 459 1238 457.881 1238 456.5C1238 455.119 1239.12 454 1240.5 454C1241.88 454 1243 455.119 1243 456.5ZM1240.5 484C1241.88 484 1243 482.881 1243 481.5C1243 480.119 1241.88 479 1240.5 479C1239.12 479 1238 480.119 1238 481.5C1238 482.881 1239.12 484 1240.5 484ZM1243 506.5C1243 507.881 1241.88 509 1240.5 509C1239.12 509 1238 507.881 1238 506.5C1238 505.119 1239.12 504 1240.5 504C1241.88 504 1243 505.119 1243 506.5ZM1240.5 534C1241.88 534 1243 532.881 1243 531.5C1243 530.119 1241.88 529 1240.5 529C1239.12 529 1238 530.119 1238 531.5C1238 532.881 1239.12 534 1240.5 534ZM1243 556.5C1243 557.881 1241.88 559 1240.5 559C1239.12 559 1238 557.881 1238 556.5C1238 555.119 1239.12 554 1240.5 554C1241.88 554 1243 555.119 1243 556.5ZM1240.5 584C1241.88 584 1243 582.881 1243 581.5C1243 580.119 1241.88 579 1240.5 579C1239.12 579 1238 580.119 1238 581.5C1238 582.881 1239.12 584 1240.5 584ZM1243 606.5C1243 607.881 1241.88 609 1240.5 609C1239.12 609 1238 607.881 1238 606.5C1238 605.119 1239.12 604 1240.5 604C1241.88 604 1243 605.119 1243 606.5ZM1240.5 634C1241.88 634 1243 632.881 1243 631.5C1243 630.119 1241.88 629 1240.5 629C1239.12 629 1238 630.119 1238 631.5C1238 632.881 1239.12 634 1240.5 634ZM1243 656.5C1243 657.881 1241.88 659 1240.5 659C1239.12 659 1238 657.881 1238 656.5C1238 655.119 1239.12 654 1240.5 654C1241.88 654 1243 655.119 1243 656.5ZM1240.5 684C1241.88 684 1243 682.881 1243 681.5C1243 680.119 1241.88 679 1240.5 679C1239.12 679 1238 680.119 1238 681.5C1238 682.881 1239.12 684 1240.5 684ZM1193 331.5C1193 332.881 1191.88 334 1190.5 334C1189.12 334 1188 332.881 1188 331.5C1188 330.119 1189.12 329 1190.5 329C1191.88 329 1193 330.119 1193 331.5ZM1190.5 359C1191.88 359 1193 357.881 1193 356.5C1193 355.119 1191.88 354 1190.5 354C1189.12 354 1188 355.119 1188 356.5C1188 357.881 1189.12 359 1190.5 359ZM1193 381.5C1193 382.881 1191.88 384 1190.5 384C1189.12 384 1188 382.881 1188 381.5C1188 380.119 1189.12 379 1190.5 379C1191.88 379 1193 380.119 1193 381.5ZM1190.5 409C1191.88 409 1193 407.881 1193 406.5C1193 405.119 1191.88 404 1190.5 404C1189.12 404 1188 405.119 1188 406.5C1188 407.881 1189.12 409 1190.5 409ZM1193 431.5C1193 432.881 1191.88 434 1190.5 434C1189.12 434 1188 432.881 1188 431.5C1188 430.119 1189.12 429 1190.5 429C1191.88 429 1193 430.119 1193 431.5ZM1190.5 459C1191.88 459 1193 457.881 1193 456.5C1193 455.119 1191.88 454 1190.5 454C1189.12 454 1188 455.119 1188 456.5C1188 457.881 1189.12 459 1190.5 459ZM1193 481.5C1193 482.881 1191.88 484 1190.5 484C1189.12 484 1188 482.881 1188 481.5C1188 480.119 1189.12 479 1190.5 479C1191.88 479 1193 480.119 1193 481.5ZM1190.5 509C1191.88 509 1193 507.881 1193 506.5C1193 505.119 1191.88 504 1190.5 504C1189.12 504 1188 505.119 1188 506.5C1188 507.881 1189.12 509 1190.5 509ZM1193 531.5C1193 532.881 1191.88 534 1190.5 534C1189.12 534 1188 532.881 1188 531.5C1188 530.119 1189.12 529 1190.5 529C1191.88 529 1193 530.119 1193 531.5ZM1190.5 559C1191.88 559 1193 557.881 1193 556.5C1193 555.119 1191.88 554 1190.5 554C1189.12 554 1188 555.119 1188 556.5C1188 557.881 1189.12 559 1190.5 559ZM1193 581.5C1193 582.881 1191.88 584 1190.5 584C1189.12 584 1188 582.881 1188 581.5C1188 580.119 1189.12 579 1190.5 579C1191.88 579 1193 580.119 1193 581.5ZM1190.5 609C1191.88 609 1193 607.881 1193 606.5C1193 605.119 1191.88 604 1190.5 604C1189.12 604 1188 605.119 1188 606.5C1188 607.881 1189.12 609 1190.5 609ZM1193 631.5C1193 632.881 1191.88 634 1190.5 634C1189.12 634 1188 632.881 1188 631.5C1188 630.119 1189.12 629 1190.5 629C1191.88 629 1193 630.119 1193 631.5ZM1190.5 659C1191.88 659 1193 657.881 1193 656.5C1193 655.119 1191.88 654 1190.5 654C1189.12 654 1188 655.119 1188 656.5C1188 657.881 1189.12 659 1190.5 659ZM1193 681.5C1193 682.881 1191.88 684 1190.5 684C1189.12 684 1188 682.881 1188 681.5C1188 680.119 1189.12 679 1190.5 679C1191.88 679 1193 680.119 1193 681.5ZM1290.5 334C1291.88 334 1293 332.881 1293 331.5C1293 330.119 1291.88 329 1290.5 329C1289.12 329 1288 330.119 1288 331.5C1288 332.881 1289.12 334 1290.5 334ZM1293 356.5C1293 357.881 1291.88 359 1290.5 359C1289.12 359 1288 357.881 1288 356.5C1288 355.119 1289.12 354 1290.5 354C1291.88 354 1293 355.119 1293 356.5ZM1290.5 384C1291.88 384 1293 382.881 1293 381.5C1293 380.119 1291.88 379 1290.5 379C1289.12 379 1288 380.119 1288 381.5C1288 382.881 1289.12 384 1290.5 384ZM1293 406.5C1293 407.881 1291.88 409 1290.5 409C1289.12 409 1288 407.881 1288 406.5C1288 405.119 1289.12 404 1290.5 404C1291.88 404 1293 405.119 1293 406.5ZM1290.5 434C1291.88 434 1293 432.881 1293 431.5C1293 430.119 1291.88 429 1290.5 429C1289.12 429 1288 430.119 1288 431.5C1288 432.881 1289.12 434 1290.5 434ZM1293 456.5C1293 457.881 1291.88 459 1290.5 459C1289.12 459 1288 457.881 1288 456.5C1288 455.119 1289.12 454 1290.5 454C1291.88 454 1293 455.119 1293 456.5ZM1290.5 484C1291.88 484 1293 482.881 1293 481.5C1293 480.119 1291.88 479 1290.5 479C1289.12 479 1288 480.119 1288 481.5C1288 482.881 1289.12 484 1290.5 484ZM1293 506.5C1293 507.881 1291.88 509 1290.5 509C1289.12 509 1288 507.881 1288 506.5C1288 505.119 1289.12 504 1290.5 504C1291.88 504 1293 505.119 1293 506.5ZM1290.5 534C1291.88 534 1293 532.881 1293 531.5C1293 530.119 1291.88 529 1290.5 529C1289.12 529 1288 530.119 1288 531.5C1288 532.881 1289.12 534 1290.5 534ZM1293 556.5C1293 557.881 1291.88 559 1290.5 559C1289.12 559 1288 557.881 1288 556.5C1288 555.119 1289.12 554 1290.5 554C1291.88 554 1293 555.119 1293 556.5ZM1290.5 584C1291.88 584 1293 582.881 1293 581.5C1293 580.119 1291.88 579 1290.5 579C1289.12 579 1288 580.119 1288 581.5C1288 582.881 1289.12 584 1290.5 584ZM1293 606.5C1293 607.881 1291.88 609 1290.5 609C1289.12 609 1288 607.881 1288 606.5C1288 605.119 1289.12 604 1290.5 604C1291.88 604 1293 605.119 1293 606.5ZM1290.5 634C1291.88 634 1293 632.881 1293 631.5C1293 630.119 1291.88 629 1290.5 629C1289.12 629 1288 630.119 1288 631.5C1288 632.881 1289.12 634 1290.5 634ZM1293 656.5C1293 657.881 1291.88 659 1290.5 659C1289.12 659 1288 657.881 1288 656.5C1288 655.119 1289.12 654 1290.5 654C1291.88 654 1293 655.119 1293 656.5ZM1290.5 684C1291.88 684 1293 682.881 1293 681.5C1293 680.119 1291.88 679 1290.5 679C1289.12 679 1288 680.119 1288 681.5C1288 682.881 1289.12 684 1290.5 684ZM1168 331.5C1168 332.881 1166.88 334 1165.5 334C1164.12 334 1163 332.881 1163 331.5C1163 330.119 1164.12 329 1165.5 329C1166.88 329 1168 330.119 1168 331.5ZM1165.5 359C1166.88 359 1168 357.881 1168 356.5C1168 355.119 1166.88 354 1165.5 354C1164.12 354 1163 355.119 1163 356.5C1163 357.881 1164.12 359 1165.5 359ZM1168 381.5C1168 382.881 1166.88 384 1165.5 384C1164.12 384 1163 382.881 1163 381.5C1163 380.119 1164.12 379 1165.5 379C1166.88 379 1168 380.119 1168 381.5ZM1165.5 409C1166.88 409 1168 407.881 1168 406.5C1168 405.119 1166.88 404 1165.5 404C1164.12 404 1163 405.119 1163 406.5C1163 407.881 1164.12 409 1165.5 409ZM1168 431.5C1168 432.881 1166.88 434 1165.5 434C1164.12 434 1163 432.881 1163 431.5C1163 430.119 1164.12 429 1165.5 429C1166.88 429 1168 430.119 1168 431.5ZM1165.5 459C1166.88 459 1168 457.881 1168 456.5C1168 455.119 1166.88 454 1165.5 454C1164.12 454 1163 455.119 1163 456.5C1163 457.881 1164.12 459 1165.5 459ZM1168 481.5C1168 482.881 1166.88 484 1165.5 484C1164.12 484 1163 482.881 1163 481.5C1163 480.119 1164.12 479 1165.5 479C1166.88 479 1168 480.119 1168 481.5ZM1165.5 509C1166.88 509 1168 507.881 1168 506.5C1168 505.119 1166.88 504 1165.5 504C1164.12 504 1163 505.119 1163 506.5C1163 507.881 1164.12 509 1165.5 509ZM1168 531.5C1168 532.881 1166.88 534 1165.5 534C1164.12 534 1163 532.881 1163 531.5C1163 530.119 1164.12 529 1165.5 529C1166.88 529 1168 530.119 1168 531.5ZM1165.5 559C1166.88 559 1168 557.881 1168 556.5C1168 555.119 1166.88 554 1165.5 554C1164.12 554 1163 555.119 1163 556.5C1163 557.881 1164.12 559 1165.5 559ZM1168 581.5C1168 582.881 1166.88 584 1165.5 584C1164.12 584 1163 582.881 1163 581.5C1163 580.119 1164.12 579 1165.5 579C1166.88 579 1168 580.119 1168 581.5ZM1165.5 609C1166.88 609 1168 607.881 1168 606.5C1168 605.119 1166.88 604 1165.5 604C1164.12 604 1163 605.119 1163 606.5C1163 607.881 1164.12 609 1165.5 609ZM1168 631.5C1168 632.881 1166.88 634 1165.5 634C1164.12 634 1163 632.881 1163 631.5C1163 630.119 1164.12 629 1165.5 629C1166.88 629 1168 630.119 1168 631.5ZM1165.5 659C1166.88 659 1168 657.881 1168 656.5C1168 655.119 1166.88 654 1165.5 654C1164.12 654 1163 655.119 1163 656.5C1163 657.881 1164.12 659 1165.5 659ZM1168 681.5C1168 682.881 1166.88 684 1165.5 684C1164.12 684 1163 682.881 1163 681.5C1163 680.119 1164.12 679 1165.5 679C1166.88 679 1168 680.119 1168 681.5ZM1265.5 334C1266.88 334 1268 332.881 1268 331.5C1268 330.119 1266.88 329 1265.5 329C1264.12 329 1263 330.119 1263 331.5C1263 332.881 1264.12 334 1265.5 334ZM1268 356.5C1268 357.881 1266.88 359 1265.5 359C1264.12 359 1263 357.881 1263 356.5C1263 355.119 1264.12 354 1265.5 354C1266.88 354 1268 355.119 1268 356.5ZM1265.5 384C1266.88 384 1268 382.881 1268 381.5C1268 380.119 1266.88 379 1265.5 379C1264.12 379 1263 380.119 1263 381.5C1263 382.881 1264.12 384 1265.5 384ZM1268 406.5C1268 407.881 1266.88 409 1265.5 409C1264.12 409 1263 407.881 1263 406.5C1263 405.119 1264.12 404 1265.5 404C1266.88 404 1268 405.119 1268 406.5ZM1265.5 434C1266.88 434 1268 432.881 1268 431.5C1268 430.119 1266.88 429 1265.5 429C1264.12 429 1263 430.119 1263 431.5C1263 432.881 1264.12 434 1265.5 434ZM1268 456.5C1268 457.881 1266.88 459 1265.5 459C1264.12 459 1263 457.881 1263 456.5C1263 455.119 1264.12 454 1265.5 454C1266.88 454 1268 455.119 1268 456.5ZM1265.5 484C1266.88 484 1268 482.881 1268 481.5C1268 480.119 1266.88 479 1265.5 479C1264.12 479 1263 480.119 1263 481.5C1263 482.881 1264.12 484 1265.5 484ZM1268 506.5C1268 507.881 1266.88 509 1265.5 509C1264.12 509 1263 507.881 1263 506.5C1263 505.119 1264.12 504 1265.5 504C1266.88 504 1268 505.119 1268 506.5ZM1265.5 534C1266.88 534 1268 532.881 1268 531.5C1268 530.119 1266.88 529 1265.5 529C1264.12 529 1263 530.119 1263 531.5C1263 532.881 1264.12 534 1265.5 534ZM1268 556.5C1268 557.881 1266.88 559 1265.5 559C1264.12 559 1263 557.881 1263 556.5C1263 555.119 1264.12 554 1265.5 554C1266.88 554 1268 555.119 1268 556.5ZM1265.5 584C1266.88 584 1268 582.881 1268 581.5C1268 580.119 1266.88 579 1265.5 579C1264.12 579 1263 580.119 1263 581.5C1263 582.881 1264.12 584 1265.5 584ZM1268 606.5C1268 607.881 1266.88 609 1265.5 609C1264.12 609 1263 607.881 1263 606.5C1263 605.119 1264.12 604 1265.5 604C1266.88 604 1268 605.119 1268 606.5ZM1265.5 634C1266.88 634 1268 632.881 1268 631.5C1268 630.119 1266.88 629 1265.5 629C1264.12 629 1263 630.119 1263 631.5C1263 632.881 1264.12 634 1265.5 634ZM1268 656.5C1268 657.881 1266.88 659 1265.5 659C1264.12 659 1263 657.881 1263 656.5C1263 655.119 1264.12 654 1265.5 654C1266.88 654 1268 655.119 1268 656.5ZM1265.5 684C1266.88 684 1268 682.881 1268 681.5C1268 680.119 1266.88 679 1265.5 679C1264.12 679 1263 680.119 1263 681.5C1263 682.881 1264.12 684 1265.5 684ZM1218 331.5C1218 332.881 1216.88 334 1215.5 334C1214.12 334 1213 332.881 1213 331.5C1213 330.119 1214.12 329 1215.5 329C1216.88 329 1218 330.119 1218 331.5ZM1215.5 359C1216.88 359 1218 357.881 1218 356.5C1218 355.119 1216.88 354 1215.5 354C1214.12 354 1213 355.119 1213 356.5C1213 357.881 1214.12 359 1215.5 359ZM1218 381.5C1218 382.881 1216.88 384 1215.5 384C1214.12 384 1213 382.881 1213 381.5C1213 380.119 1214.12 379 1215.5 379C1216.88 379 1218 380.119 1218 381.5ZM1215.5 409C1216.88 409 1218 407.881 1218 406.5C1218 405.119 1216.88 404 1215.5 404C1214.12 404 1213 405.119 1213 406.5C1213 407.881 1214.12 409 1215.5 409ZM1218 431.5C1218 432.881 1216.88 434 1215.5 434C1214.12 434 1213 432.881 1213 431.5C1213 430.119 1214.12 429 1215.5 429C1216.88 429 1218 430.119 1218 431.5ZM1215.5 459C1216.88 459 1218 457.881 1218 456.5C1218 455.119 1216.88 454 1215.5 454C1214.12 454 1213 455.119 1213 456.5C1213 457.881 1214.12 459 1215.5 459ZM1218 481.5C1218 482.881 1216.88 484 1215.5 484C1214.12 484 1213 482.881 1213 481.5C1213 480.119 1214.12 479 1215.5 479C1216.88 479 1218 480.119 1218 481.5ZM1215.5 509C1216.88 509 1218 507.881 1218 506.5C1218 505.119 1216.88 504 1215.5 504C1214.12 504 1213 505.119 1213 506.5C1213 507.881 1214.12 509 1215.5 509ZM1218 531.5C1218 532.881 1216.88 534 1215.5 534C1214.12 534 1213 532.881 1213 531.5C1213 530.119 1214.12 529 1215.5 529C1216.88 529 1218 530.119 1218 531.5ZM1215.5 559C1216.88 559 1218 557.881 1218 556.5C1218 555.119 1216.88 554 1215.5 554C1214.12 554 1213 555.119 1213 556.5C1213 557.881 1214.12 559 1215.5 559ZM1218 581.5C1218 582.881 1216.88 584 1215.5 584C1214.12 584 1213 582.881 1213 581.5C1213 580.119 1214.12 579 1215.5 579C1216.88 579 1218 580.119 1218 581.5ZM1215.5 609C1216.88 609 1218 607.881 1218 606.5C1218 605.119 1216.88 604 1215.5 604C1214.12 604 1213 605.119 1213 606.5C1213 607.881 1214.12 609 1215.5 609ZM1218 631.5C1218 632.881 1216.88 634 1215.5 634C1214.12 634 1213 632.881 1213 631.5C1213 630.119 1214.12 629 1215.5 629C1216.88 629 1218 630.119 1218 631.5ZM1215.5 659C1216.88 659 1218 657.881 1218 656.5C1218 655.119 1216.88 654 1215.5 654C1214.12 654 1213 655.119 1213 656.5C1213 657.881 1214.12 659 1215.5 659ZM1218 681.5C1218 682.881 1216.88 684 1215.5 684C1214.12 684 1213 682.881 1213 681.5C1213 680.119 1214.12 679 1215.5 679C1216.88 679 1218 680.119 1218 681.5ZM1315.5 334C1316.88 334 1318 332.881 1318 331.5C1318 330.119 1316.88 329 1315.5 329C1314.12 329 1313 330.119 1313 331.5C1313 332.881 1314.12 334 1315.5 334ZM1318 356.5C1318 357.881 1316.88 359 1315.5 359C1314.12 359 1313 357.881 1313 356.5C1313 355.119 1314.12 354 1315.5 354C1316.88 354 1318 355.119 1318 356.5ZM1315.5 384C1316.88 384 1318 382.881 1318 381.5C1318 380.119 1316.88 379 1315.5 379C1314.12 379 1313 380.119 1313 381.5C1313 382.881 1314.12 384 1315.5 384ZM1318 406.5C1318 407.881 1316.88 409 1315.5 409C1314.12 409 1313 407.881 1313 406.5C1313 405.119 1314.12 404 1315.5 404C1316.88 404 1318 405.119 1318 406.5ZM1315.5 434C1316.88 434 1318 432.881 1318 431.5C1318 430.119 1316.88 429 1315.5 429C1314.12 429 1313 430.119 1313 431.5C1313 432.881 1314.12 434 1315.5 434ZM1318 456.5C1318 457.881 1316.88 459 1315.5 459C1314.12 459 1313 457.881 1313 456.5C1313 455.119 1314.12 454 1315.5 454C1316.88 454 1318 455.119 1318 456.5ZM1315.5 484C1316.88 484 1318 482.881 1318 481.5C1318 480.119 1316.88 479 1315.5 479C1314.12 479 1313 480.119 1313 481.5C1313 482.881 1314.12 484 1315.5 484ZM1318 506.5C1318 507.881 1316.88 509 1315.5 509C1314.12 509 1313 507.881 1313 506.5C1313 505.119 1314.12 504 1315.5 504C1316.88 504 1318 505.119 1318 506.5ZM1315.5 534C1316.88 534 1318 532.881 1318 531.5C1318 530.119 1316.88 529 1315.5 529C1314.12 529 1313 530.119 1313 531.5C1313 532.881 1314.12 534 1315.5 534ZM1318 556.5C1318 557.881 1316.88 559 1315.5 559C1314.12 559 1313 557.881 1313 556.5C1313 555.119 1314.12 554 1315.5 554C1316.88 554 1318 555.119 1318 556.5ZM1315.5 584C1316.88 584 1318 582.881 1318 581.5C1318 580.119 1316.88 579 1315.5 579C1314.12 579 1313 580.119 1313 581.5C1313 582.881 1314.12 584 1315.5 584ZM1318 606.5C1318 607.881 1316.88 609 1315.5 609C1314.12 609 1313 607.881 1313 606.5C1313 605.119 1314.12 604 1315.5 604C1316.88 604 1318 605.119 1318 606.5ZM1315.5 634C1316.88 634 1318 632.881 1318 631.5C1318 630.119 1316.88 629 1315.5 629C1314.12 629 1313 630.119 1313 631.5C1313 632.881 1314.12 634 1315.5 634ZM1318 656.5C1318 657.881 1316.88 659 1315.5 659C1314.12 659 1313 657.881 1313 656.5C1313 655.119 1314.12 654 1315.5 654C1316.88 654 1318 655.119 1318 656.5ZM1315.5 684C1316.88 684 1318 682.881 1318 681.5C1318 680.119 1316.88 679 1315.5 679C1314.12 679 1313 680.119 1313 681.5C1313 682.881 1314.12 684 1315.5 684Z" fill="#DEE7EE"/>
</svg>
