<svg width="18" height="15" viewBox="0 0 18 15" fill="none" xmlns="http://www.w3.org/2000/svg">
<rect width="18" height="15" fill="#1E1E1E"/>
<g clip-path="url(#clip0_0_1)">
<rect width="1920" height="9003" transform="translate(-1524 -8669)" fill="white"/>
<rect x="-1525" y="-437" width="1920" height="771" fill="#F7F9FC"/>
<rect x="-212" y="-19" width="307" height="55" rx="3" fill="#020C14"/>
<g clip-path="url(#clip1_0_1)">
<path d="M6.5625 13.209V16.6875C6.5625 16.9305 6.7185 17.1457 6.9495 17.2222C7.00725 17.241 7.0665 17.25 7.125 17.25C7.3005 17.25 7.47 17.1675 7.578 17.0205L9.61274 14.2515L6.5625 13.209Z" fill="white"/>
<path d="M17.7638 0.10334C17.5913 -0.0189101 17.3648 -0.0354101 17.1773 0.0628399L0.302283 8.87534C0.102783 8.97959 -0.0149666 9.19259 0.00153336 9.41684C0.0187834 9.64184 0.168033 9.83384 0.380283 9.90659L5.07153 11.5101L15.0623 2.96759L7.33128 12.2818L15.1935 14.9691C15.252 14.9886 15.3135 14.9991 15.375 14.9991C15.477 14.9991 15.5783 14.9713 15.6675 14.9173C15.81 14.8303 15.9068 14.6841 15.9315 14.5198L17.994 0.64484C18.0248 0.43484 17.9363 0.22634 17.7638 0.10334Z" fill="white"/>
</g>
</g>
<defs>
<clipPath id="clip0_0_1">
<rect width="1920" height="9003" fill="white" transform="translate(-1524 -8669)"/>
</clipPath>
<clipPath id="clip1_0_1">
<rect width="18" height="18" fill="white"/>
</clipPath>
</defs>
</svg>
