<svg width="34" height="39" viewBox="0 0 34 39" fill="none" xmlns="http://www.w3.org/2000/svg">
<path d="M16.564 12.0818L14.528 15.3126C14.0713 16.0247 14.4518 16.6153 15.3462 16.6153H17.7628C18.6762 16.6153 19.0377 17.2059 18.581 17.918L16.564 21.1488" stroke="#008AFF" stroke-width="2" stroke-linecap="round" stroke-linejoin="round"/>
<path d="M9.2614 29.5335V27.4705C4.7265 24.9985 1 20.1789 1 15.057C1 6.25367 9.97121 -0.646693 20.1057 1.34516C24.5617 2.23438 28.4657 4.90205 30.4965 8.58343C34.6174 16.0529 30.2797 23.9847 23.9111 27.4527V29.5157C23.9111 30.0314 24.128 31.223 22.0183 31.223H11.1542C8.98536 31.2408 9.2614 30.4761 9.2614 29.5335Z" stroke="#008AFF" stroke-width="2" stroke-linecap="round" stroke-linejoin="round"/>
<path d="M9.88867 37.2679C14.2506 35.9247 18.8601 35.9247 23.222 37.2679" stroke="#008AFF" stroke-width="2" stroke-linecap="round" stroke-linejoin="round"/>
</svg>
