<svg width="42" height="39" viewBox="0 0 42 39" fill="none" xmlns="http://www.w3.org/2000/svg">
<path d="M40.9887 20.9417V13.6902C40.9887 4.62577 36.9898 1 26.9926 1H14.996C4.99887 1 1 4.62577 1 13.6902V24.5675C1 33.6319 4.99887 37.2577 14.996 37.2577H22.9938" stroke="#008AFF" stroke-width="2" stroke-linecap="round" stroke-linejoin="round"/>
<path d="M11.6562 23.6424L16.4149 18.0406C17.0947 17.2429 18.3544 17.0979 19.2341 17.7143L22.8931 20.3249C23.7729 20.9412 25.0325 20.7962 25.7123 20.0167L30.331 14.6143" stroke="#008AFF" stroke-width="2" stroke-linecap="round" stroke-linejoin="round"/>
<path d="M35.9501 26.0541L36.5099 27.0874C36.7898 27.595 37.4896 28.0664 38.1094 28.1751L38.8692 28.2839C41.1486 28.6283 41.6884 30.1512 40.0489 31.6559L39.3491 32.2904C38.8892 32.7254 38.6293 33.5594 38.7693 34.1395L38.8692 34.5202C39.4891 37.022 38.0295 37.9828 35.6302 36.6775L35.1103 36.4056C34.4905 36.0793 33.4908 36.0793 32.8709 36.4056L32.3511 36.6775C29.9318 38.0009 28.4722 37.022 29.112 34.5202L29.2119 34.1395C29.3519 33.5594 29.092 32.7254 28.6322 32.2904L27.9323 31.6559C26.2928 30.1512 26.8326 28.6283 29.112 28.2839L29.8718 28.1751C30.4716 28.0845 31.1914 27.595 31.4713 27.0874L32.0312 26.0541C33.1108 24.078 34.8704 24.078 35.9501 26.0541Z" stroke="#008AFF" stroke-width="2" stroke-linecap="round" stroke-linejoin="round"/>
</svg>
