<svg width="42" height="39" viewBox="0 0 42 39" fill="none" xmlns="http://www.w3.org/2000/svg">
<path d="M19 1H15C5 1 1 4.6268 1 13.6938V24.5742C1 33.6412 5 37.268 15 37.268H27C37 37.268 41 33.6412 41 24.5742V20.9474" stroke="#008AFF" stroke-width="1.5" stroke-linecap="round" stroke-linejoin="round"/>
<path d="M28.7428 3.2749L13.1925 17.3764C12.6005 17.9132 12.0085 18.969 11.8901 19.7385L11.0415 25.125C10.7258 27.0756 12.2453 28.4356 14.3963 28.1672L20.3362 27.3977C21.165 27.2903 22.3293 26.7535 22.9411 26.2166L38.4914 12.1152C41.1752 9.6814 42.4381 6.85395 38.4914 3.2749C34.5446 -0.304153 31.4266 0.841143 28.7428 3.2749Z" stroke="#008AFF" stroke-width="1.5" stroke-miterlimit="10" stroke-linecap="round" stroke-linejoin="round"/>
<path d="M27 5.53345C28.2206 9.48144 31.6275 12.5705 36 13.6937" stroke="#008AFF" stroke-width="1.5" stroke-miterlimit="10" stroke-linecap="round" stroke-linejoin="round"/>
</svg>
