<svg width="42" height="39" viewBox="0 0 42 39" fill="none" xmlns="http://www.w3.org/2000/svg">
<path d="M26 14.6006H16V23.6676H26V14.6006Z" stroke="#008AFF" stroke-width="1.5" stroke-linecap="round" stroke-linejoin="round"/>
<path d="M12.5 30.0144C14.425 30.0144 16 28.5863 16 26.841V23.6675H12.5C10.575 23.6675 9 25.0956 9 26.841C9 28.5863 10.575 30.0144 12.5 30.0144Z" stroke="#008AFF" stroke-width="1.5" stroke-linecap="round" stroke-linejoin="round"/>
<path d="M12.5 14.6006H16V11.4271C16 9.68169 14.425 8.25366 12.5 8.25366C10.575 8.25366 9 9.68169 9 11.4271C9 13.1725 10.575 14.6006 12.5 14.6006Z" stroke="#008AFF" stroke-width="1.5" stroke-linecap="round" stroke-linejoin="round"/>
<path d="M26 14.6006H29.5C31.425 14.6006 33 13.1725 33 11.4271C33 9.68169 31.425 8.25366 29.5 8.25366C27.575 8.25366 26 9.68169 26 11.4271V14.6006Z" stroke="#008AFF" stroke-width="1.5" stroke-linecap="round" stroke-linejoin="round"/>
<path d="M29.5 30.0144C31.425 30.0144 33 28.5863 33 26.841C33 25.0956 31.425 23.6675 29.5 23.6675H26V26.841C26 28.5863 27.575 30.0144 29.5 30.0144Z" stroke="#008AFF" stroke-width="1.5" stroke-linecap="round" stroke-linejoin="round"/>
<path d="M15 37.268H27C37 37.268 41 33.6412 41 24.5742V13.6938C41 4.6268 37 1 27 1H15C5 1 1 4.6268 1 13.6938V24.5742C1 33.6412 5 37.268 15 37.268Z" stroke="#008AFF" stroke-width="1.5" stroke-linecap="round" stroke-linejoin="round"/>
</svg>
