<svg width="50" height="46" viewBox="0 0 50 46" fill="none" xmlns="http://www.w3.org/2000/svg">
<path d="M43.75 0H6.25C2.80312 0 0 2.80704 0 6.25874V39.6397C0 43.0914 2.80312 45.8984 6.25 45.8984H43.75C47.1969 45.8984 50 43.0914 50 39.6397V6.25874C50 2.80704 47.1969 0 43.75 0ZM43.75 41.7239H6.25C5.1 41.7239 4.16563 40.7882 4.16563 39.6366V10.4302H45.8344V39.6366C45.8344 40.7882 44.9 41.7239 43.75 41.7239Z" fill="#020C14"/>
<path d="M15.1039 25.0349H9.89453C9.03203 25.0349 8.33203 24.3339 8.33203 23.4702V16.1694C8.33203 15.3057 9.03203 14.6047 9.89453 14.6047H15.1039C15.9664 14.6047 16.6664 15.3057 16.6664 16.1694V23.4702C16.6664 24.3339 15.9664 25.0349 15.1039 25.0349Z" fill="#020C14" fill-opacity="0.35"/>
<path d="M15.1039 39.6365H9.89453C9.03203 39.6365 8.33203 38.9356 8.33203 38.0719V30.771C8.33203 29.9073 9.03203 29.2064 9.89453 29.2064H15.1039C15.9664 29.2064 16.6664 29.9073 16.6664 30.771V38.0719C16.6664 38.9356 15.9664 39.6365 15.1039 39.6365Z" fill="#020C14" fill-opacity="0.35"/>
<path d="M20.834 8.34296H24.9996V43.8081H20.834V8.34296Z" fill="#020C14" fill-opacity="0.35"/>
<path d="M39.5848 20.8604H31.2504C30.0973 20.8604 29.166 19.9247 29.166 18.7731C29.166 17.6215 30.1004 16.689 31.2504 16.689H39.5848C40.7379 16.689 41.6691 17.6246 41.6691 18.7763C41.6691 19.9279 40.7348 20.8604 39.5848 20.8604Z" fill="#020C14" fill-opacity="0.35"/>
<path d="M39.5848 29.2064H31.2504C30.0973 29.2064 29.166 28.2708 29.166 27.1191C29.166 25.9675 30.0973 25.0319 31.2504 25.0319H39.5848C40.7379 25.0319 41.6691 25.9675 41.6691 27.1191C41.6691 28.2708 40.7348 29.2064 39.5848 29.2064Z" fill="#020C14" fill-opacity="0.35"/>
<path d="M39.5848 37.5524H31.2504C30.0973 37.5524 29.166 36.6168 29.166 35.4652C29.166 34.3135 30.0973 33.3779 31.2504 33.3779H39.5848C40.7379 33.3779 41.6691 34.3135 41.6691 35.4652C41.6691 36.6168 40.7348 37.5524 39.5848 37.5524Z" fill="#020C14" fill-opacity="0.35"/>
</svg>
