<svg width="50" height="50" viewBox="0 0 50 50" fill="none" xmlns="http://www.w3.org/2000/svg">
<path d="M31.3175 33.3344C31.4246 32.653 31.4786 31.9534 31.4786 31.25C31.4786 30.5534 31.4246 29.8592 31.3206 29.1847L34.7984 26.4816C35.613 25.8469 35.8403 24.6941 35.3224 23.7999L33.0784 19.9501C32.5575 19.0559 31.4339 18.6722 30.4683 19.0598L26.3678 20.694C25.2474 19.7998 24.0352 19.1063 22.7475 18.6218L22.1256 14.2876C21.9807 13.269 21.0837 12.5 20.0426 12.5H15.5568C14.5157 12.5 13.6187 13.269 13.4738 14.2906L12.8519 18.6249C11.5642 19.1154 10.3359 19.8189 9.25006 20.694L5.1311 19.0598C4.16551 18.6783 3.04503 19.0598 2.52409 19.9501L0.280048 23.7999C-0.240891 24.6941 -0.0135577 25.8499 0.807152 26.4847L4.28188 29.1687C4.17476 29.847 4.12082 30.5466 4.12082 31.25C4.12082 31.9466 4.17476 32.6408 4.27879 33.3153L0.800217 36.0184C-0.0135578 36.6531 -0.240891 37.8059 0.276966 38.7001L2.52101 42.5499C3.04195 43.4402 4.16551 43.8248 5.1311 43.4402L9.23157 41.806C10.352 42.7002 11.5642 43.3937 12.8519 43.8782L13.4738 48.2124C13.6187 49.231 14.5157 50 15.5568 50H20.0426C21.0837 50 21.9807 49.231 22.1256 48.2094L22.7475 43.8751C24.0352 43.3846 25.2628 42.6811 26.3493 41.806L30.4683 43.4402C31.4401 43.8248 32.5544 43.4441 33.0753 42.5499L35.3194 38.7001C35.8403 37.8059 35.613 36.6501 34.7923 36.0153L31.3175 33.3344ZM17.7978 38.5406C13.7358 38.5406 10.4337 35.2684 10.4337 31.25C10.4337 27.2278 13.7389 23.9594 17.7978 23.9594C21.8574 23.9594 25.1618 27.2316 25.1618 31.25C25.1657 35.2722 21.8605 38.5406 17.7978 38.5406Z" fill="#020C14"/>
<path d="M47.6854 11.3937C47.727 11.0687 47.7872 10.7498 47.7872 10.4156C47.7872 10.0815 47.7301 9.76257 47.6854 9.43756L49.5796 8.01849C50.0027 7.7034 50.1229 7.12204 49.854 6.66885L48.1563 3.74985C47.8912 3.29361 47.3263 3.10593 46.837 3.31268L44.6554 4.22516C44.1221 3.82156 43.5541 3.46527 42.9292 3.20587L42.6386 0.912476C42.5724 0.390625 42.1269 0 41.5968 0H38.1945C37.6643 0 37.2158 0.390625 37.1495 0.912476L36.859 3.20587C36.234 3.46527 35.6661 3.81851 35.1359 4.22211L32.9543 3.30963C32.4657 3.10593 31.9 3.29361 31.635 3.7468L29.9342 6.6658C29.6683 7.12204 29.7855 7.70035 30.2085 8.01544L32.1027 9.43451C32.0611 9.75952 32.001 10.0784 32.001 10.4126C32.001 10.7468 32.058 11.0657 32.1027 11.3907L30.2085 12.8098C29.7855 13.1248 29.6653 13.7062 29.9342 14.1594L31.635 17.0784C31.9 17.5346 32.4657 17.7216 32.9543 17.5156L35.1359 16.6031C35.6661 17.0029 36.234 17.3592 36.859 17.6186L37.1495 19.9127C37.2158 20.4346 37.6643 20.8252 38.1945 20.8252H41.5968C42.1269 20.8252 42.5754 20.4346 42.6417 19.9127L42.9322 17.6186C43.5572 17.3592 44.1252 17.0059 44.6554 16.6031L46.837 17.5156C47.3263 17.7185 47.8912 17.5316 48.1563 17.0784L49.8578 14.1594C50.1229 13.7032 50.0058 13.1248 49.5827 12.8098L47.6854 11.3937ZM39.8921 14.5844C37.5695 14.5844 35.6846 12.719 35.6846 10.4187C35.6846 8.11844 37.5695 6.25305 39.8921 6.25305C42.2156 6.25305 44.0997 8.11844 44.0997 10.4187C44.1036 12.719 42.2187 14.5844 39.8921 14.5844Z" fill="#020C14" fill-opacity="0.35"/>
</svg>
