<svg width="41" height="39" viewBox="0 0 41 39" fill="none" xmlns="http://www.w3.org/2000/svg">
<path d="M20.502 30.3773C24.9202 30.3773 28.502 27.1298 28.502 23.1237C28.502 19.1177 24.9202 15.8701 20.502 15.8701C16.0837 15.8701 12.502 19.1177 12.502 23.1237C12.502 27.1298 16.0837 30.3773 20.502 30.3773Z" stroke="#008AFF" stroke-width="2" stroke-miterlimit="10" stroke-linecap="round" stroke-linejoin="round"/>
<path d="M21.002 20.8569V22.5434C21.002 23.1781 20.642 23.7765 20.022 24.1029L18.502 24.9371" stroke="#008AFF" stroke-width="2" stroke-miterlimit="10" stroke-linecap="round" stroke-linejoin="round"/>
<path d="M12.5016 37.2678H28.5016C36.5416 37.2678 37.9816 34.3482 38.4016 30.794L39.9016 16.2868C40.4416 11.8621 39.0416 8.25342 30.5016 8.25342H10.5016C1.96161 8.25342 0.561606 11.8621 1.10161 16.2868L2.60161 30.794C3.02161 34.3482 4.46161 37.2678 12.5016 37.2678Z" stroke="#008AFF" stroke-width="2" stroke-miterlimit="10" stroke-linecap="round" stroke-linejoin="round"/>
<path d="M12.502 8.25359V6.80287C12.502 3.59316 12.502 1 18.902 1H22.102C28.502 1 28.502 3.59316 28.502 6.80287V8.25359" stroke="#008AFF" stroke-width="2" stroke-miterlimit="10" stroke-linecap="round" stroke-linejoin="round"/>
<path d="M39.8015 17.3208C36.3415 19.6057 32.5015 21.2015 28.5215 22.1082" stroke="#008AFF" stroke-width="2" stroke-miterlimit="10" stroke-linecap="round" stroke-linejoin="round"/>
<path d="M1.74219 17.8101C5.08219 19.8773 8.72219 21.3462 12.5022 22.1803" stroke="#008AFF" stroke-width="2" stroke-miterlimit="10" stroke-linecap="round" stroke-linejoin="round"/>
</svg>
