<svg width="50" height="44" viewBox="0 0 50 44" fill="none" xmlns="http://www.w3.org/2000/svg">
<path d="M29.1653 10.4752C29.1653 16.2606 24.5022 20.9503 18.7496 20.9503C12.9971 20.9503 8.33398 16.2606 8.33398 10.4752C8.33398 4.68973 12.9971 0 18.7496 0C24.5022 0 29.1653 4.68973 29.1653 10.4752Z" fill="#020C14"/>
<path d="M27.6031 25.1429H9.8938C4.44031 25.1429 0 29.6086 0 35.0963V42.4286C0 43.2956 0.700379 44 1.5625 44H35.9375C36.7996 44 37.5 43.2956 37.5 42.4286V35.0963C37.5 29.6086 33.0597 25.1429 27.6031 25.1429Z" fill="#020C14"/>
<path d="M49.5037 17.7039L42.213 10.8933C41.9193 10.6163 41.5378 10.4752 41.1503 10.4752C40.1188 10.4752 39.5878 11.3583 39.5878 12.0435V16.7578H31.2504C30.1006 16.7578 29.166 17.6977 29.166 18.8541C29.166 20.0104 30.0976 20.9503 31.2504 20.9503H39.5847V25.6646C39.5847 26.5355 40.2881 27.236 41.1472 27.236C41.5348 27.236 41.9163 27.0918 42.21 26.8179L49.5006 20.0073C49.8188 19.7119 50.0004 19.2937 50.0004 18.8571C50.0004 18.4205 49.8188 18.0024 49.5037 17.7039Z" fill="#020C14" fill-opacity="0.35"/>
</svg>
