<svg width="124" height="31" viewBox="0 0 124 31" fill="none" xmlns="http://www.w3.org/2000/svg">
<path d="M104.191 29.0238V20.5893C103.071 22.314 100.612 22.8259 98.9502 22.8259C93.9021 22.8259 90.9941 19.1835 90.9941 14.5842C90.9941 9.98492 94.2211 6.33887 99.0763 6.33887C100.868 6.33887 102.975 7.10665 104.191 8.86106L104.447 6.69123H108.089V29.0238H104.191ZM103.839 14.5842C103.839 12.1214 102.177 10.1073 99.3656 10.1073C96.5541 10.1073 94.8924 12.1214 94.8924 14.5842C94.8924 17.0471 96.7136 19.0574 99.3656 19.0574C102.018 19.0574 103.839 17.0434 103.839 14.5842Z" fill="#020C14"/>
<path d="M45.4912 10.8749C44.3747 9.82148 43.0951 9.46912 41.5929 9.46912C39.7384 9.46912 38.7184 10.044 38.7184 11.0344C38.7184 12.0247 39.6456 12.633 41.656 12.7591C44.627 12.952 48.3991 13.6233 48.3991 17.8109C48.3991 20.589 46.1292 22.9851 41.6263 22.9851C39.1338 22.9851 36.6412 22.5697 34.3379 20.1736L36.2555 17.3955C37.3757 18.6417 39.9312 19.5653 41.6894 19.5987C43.1582 19.6321 44.5342 18.8643 44.5342 17.7145C44.5342 16.6277 43.6366 16.1789 41.4 16.0528C38.429 15.8302 34.8831 14.7435 34.8831 11.1642C34.8831 7.52183 38.6516 6.24219 41.5299 6.24219C43.989 6.24219 45.8436 6.72066 47.6647 8.31929L45.4912 10.8749Z" fill="#020C14"/>
<path d="M56.0701 2.24756V6.72075H60.4134V10.0775H56.0367V16.8837C56.0367 18.3859 56.8675 19.1203 58.0804 19.1203C58.6887 19.1203 59.3934 18.9274 59.9683 18.6418L61.0551 21.9652C59.935 22.4103 59.0077 22.6032 57.8282 22.6328C54.4084 22.7627 52.1718 20.8117 52.1718 16.8837V10.0775H49.2305V6.72075H52.1718V2.66298L56.0701 2.24756Z" fill="#020C14"/>
<path d="M66.6146 6.6913L66.9002 8.51247C68.1168 6.56148 69.7451 6.27588 71.3437 6.27588C72.9424 6.27588 74.5373 6.91385 75.4015 7.77807L73.6434 11.1645C72.8459 10.4931 72.1078 10.1408 70.8319 10.1408C68.7845 10.1408 66.9002 11.2275 66.9002 14.1355V22.4439H63.002V6.6913H66.6146Z" fill="#020C14"/>
<path d="M82.8116 9.15394C80.9719 9.15394 79.6106 9.99961 78.7946 11.7206L76.0462 10.1517C77.3147 7.40324 79.6106 6.04199 82.9043 6.04199C85.9235 6.04199 87.9487 7.13247 88.9427 9.33568C89.3062 10.1517 89.488 11.1161 89.488 12.2362V22.503H85.9532V20.2998C84.9592 21.9578 83.3865 22.7738 81.213 22.7738C79.6403 22.7738 78.3421 22.3213 77.3147 21.4459C76.2872 20.5706 75.7754 19.4245 75.7754 18.0336V17.8518C75.7754 14.1056 79.6403 12.9298 82.4815 12.9298H84.4733C85.471 12.9298 85.9829 12.4773 85.9829 11.5686C85.9829 10.2407 84.8368 9.15394 82.8116 9.15394ZM85.9532 15.4668H82.4815C81.7248 15.4668 81.0015 15.6783 80.3376 16.0714C79.6737 16.4646 79.3695 17.0061 79.3695 17.6997C79.3695 19.0313 80.3969 19.9067 81.9362 19.9067C84.3842 19.9067 85.9532 18.397 85.9532 15.9787V15.4668Z" fill="#020C14"/>
<path d="M116.511 9.15394C114.667 9.15394 113.306 9.99961 112.494 11.7206L109.745 10.1517C111.014 7.40324 113.306 6.04199 116.6 6.04199C119.619 6.04199 121.644 7.13247 122.638 9.33568C123.002 10.1517 123.183 11.1161 123.183 12.2362V22.503H119.649V20.2998C118.654 21.9578 117.082 22.7738 114.908 22.7738C113.339 22.7738 112.037 22.3213 111.014 21.4459C109.99 20.5706 109.471 19.4245 109.471 18.0336V17.8518C109.471 14.1056 113.339 12.9298 116.177 12.9298H118.169C119.166 12.9298 119.678 12.4773 119.678 11.5686C119.678 10.2407 118.532 9.15394 116.511 9.15394ZM119.649 15.4668H116.177C115.42 15.4668 114.697 15.6783 114.033 16.0714C113.369 16.4646 113.065 17.0061 113.065 17.6997C113.065 19.0313 114.092 19.9067 115.632 19.9067C118.08 19.9067 119.649 18.397 119.649 15.9787V15.4668Z" fill="#020C14"/>
<path d="M15.5706 19.7623C17.8813 19.7623 19.7545 17.8891 19.7545 15.5784C19.7545 13.2677 17.8813 11.3945 15.5706 11.3945C13.2599 11.3945 11.3867 13.2677 11.3867 15.5784C11.3867 17.8891 13.2599 19.7623 15.5706 19.7623Z" fill="#020C14"/>
<path d="M15.5714 9.57307C17.164 9.57307 18.6914 10.2057 19.8176 11.3319C20.9437 12.4581 21.5764 13.9855 21.5764 15.5781C21.5764 18.8904 18.8873 21.5795 15.5714 21.5795C12.2554 21.5795 9.57001 18.8904 9.57001 15.5781C9.57001 12.2659 12.2591 9.57307 15.5714 9.57307ZM15.5714 8.16361C13.8539 8.16203 12.1891 8.75609 10.8607 9.84455C9.53223 10.933 8.62237 12.4485 8.28618 14.1327C7.94999 15.8169 8.20828 17.5655 9.01702 19.0806C9.82577 20.5957 11.1349 21.7834 12.7213 22.4413C14.3077 23.0992 16.0732 23.1866 17.7168 22.6886C19.3604 22.1905 20.7804 21.1379 21.7349 19.7101C22.6893 18.2823 23.119 16.5677 22.9508 14.8586C22.7825 13.1494 22.0268 11.5515 20.8123 10.3371C20.1263 9.64572 19.3097 9.09752 18.41 8.72439C17.5103 8.35126 16.5454 8.16064 15.5714 8.16361Z" fill="#020C14"/>
<path d="M15.5699 6.69838C20.4734 6.69838 24.4496 10.6745 24.4496 15.578C24.4496 20.4814 20.4734 24.4539 15.5699 24.4539C10.6665 24.4539 6.69404 20.4777 6.69404 15.578C6.69404 10.6783 10.6702 6.69838 15.5699 6.69838ZM15.5699 5.57081C13.0987 5.57511 10.7171 6.49703 8.88713 8.15777C7.05711 9.81851 5.90908 12.0997 5.66568 14.5589C5.42229 17.0181 6.10088 19.4801 7.56985 21.4674C9.03882 23.4546 11.1935 24.8255 13.6159 25.3141C16.0384 25.8028 18.556 25.3743 20.6804 24.1119C22.8049 22.8495 24.3848 20.8431 25.1138 18.4818C25.8427 16.1206 25.6688 13.5727 24.6256 11.3324C23.5825 9.09214 21.7446 7.31909 19.4682 6.35714C18.2346 5.83659 16.9089 5.56919 15.5699 5.57081Z" fill="#020C14"/>
<path d="M15.5708 4.2207C21.8466 4.2207 26.9318 9.30218 26.9318 15.578C26.9318 21.8538 21.8466 26.9353 15.5708 26.9353C9.29495 26.9353 4.21346 21.8501 4.21346 15.578C4.21346 9.30589 9.29865 4.2207 15.5708 4.2207ZM15.5708 3.37502C12.557 3.38079 9.65275 4.50567 7.42138 6.53147C5.19 8.55728 3.79053 11.3396 3.49441 14.3388C3.19828 17.338 4.02661 20.3403 5.81872 22.7634C7.61084 25.1864 10.239 26.8576 13.1935 27.4526C16.1479 28.0476 19.2181 27.5242 21.8085 25.9838C24.3988 24.4434 26.3248 21.9958 27.2128 19.1158C28.1008 16.2358 27.8875 13.1287 26.6143 10.397C25.3411 7.66538 23.0987 5.50395 20.3221 4.33197C18.8186 3.69735 17.2027 3.3719 15.5708 3.37502Z" fill="#020C14"/>
<path d="M15.5707 2.13266C22.9963 2.13266 29.0162 8.15255 29.0162 15.5782C29.0162 23.0038 22.9963 29.02 15.5707 29.02C8.14503 29.02 2.12885 23.0001 2.12885 15.5782C2.12885 8.15625 8.14874 2.13266 15.5707 2.13266ZM15.5707 1.56887C12.1081 1.57358 8.77074 2.86413 6.20586 5.1902C3.64098 7.51627 2.03143 10.7121 1.68943 14.1577C1.34743 17.6033 2.29734 21.0531 4.35492 23.838C6.4125 26.6229 9.43108 28.5443 12.8251 29.2296C16.2192 29.9149 19.7468 29.3151 22.7237 27.5467C25.7006 25.7783 27.9146 22.9673 28.9363 19.6589C29.9579 16.3505 29.7144 12.7806 28.2529 9.64158C26.7915 6.50258 24.2162 4.01825 21.0268 2.67048C19.3007 1.93999 17.445 1.56531 15.5707 1.56887Z" fill="#020C14"/>
<path d="M15.5703 0.326354C23.9937 0.326354 30.8222 7.15483 30.8222 15.5782C30.8222 24.0016 23.9937 30.8264 15.5703 30.8264C7.14693 30.8264 0.32216 23.9979 0.32216 15.5782C0.32216 7.15854 7.15064 0.326354 15.5703 0.326354ZM15.5703 0.0444617C11.7355 0.0502787 8.03959 1.48011 5.19932 4.05662C2.35906 6.63314 0.576916 10.1727 0.198564 13.9888C-0.179787 17.8048 0.872617 21.6254 3.15166 24.7095C5.43069 27.7936 8.77392 29.9213 12.5329 30.68C16.2919 31.4387 20.1987 30.7744 23.4955 28.8157C26.7924 26.8571 29.2443 23.7438 30.3758 20.0797C31.5072 16.4157 31.2375 12.462 29.619 8.9855C28.0005 5.50902 25.1485 2.75755 21.6162 1.26476C19.7035 0.455544 17.6472 0.0404994 15.5703 0.0444617Z" fill="#020C14"/>
</svg>
