<svg width="65" height="65" viewBox="0 0 65 65" fill="none" xmlns="http://www.w3.org/2000/svg">
<rect width="65" height="65" rx="5" fill="#008AFF"/>
<path d="M24.2492 40.496C25.1021 40.5106 25.8039 39.8283 25.8185 38.9754V18.3297C25.8039 17.4963 25.1313 16.8188 24.2979 16.8091C23.445 16.7944 22.7431 17.4768 22.7285 18.3297V38.9754C22.7383 39.8088 23.4109 40.4814 24.2492 40.496Z" fill="white"/>
<path d="M16.5304 36.8454C17.3833 36.8551 18.0851 36.1679 18.0949 35.315V21.4197C18.0803 20.5765 17.4028 19.899 16.5645 19.8893C15.7067 19.8795 15.0097 20.5667 15 21.4197V35.3199C15.0097 36.1582 15.6872 36.8405 16.5304 36.8454Z" fill="white"/>
<path d="M39.7023 40.496C40.5552 40.5106 41.257 39.8283 41.2717 38.9754V18.3297C41.257 17.4963 40.5845 16.8188 39.751 16.8091C38.8981 16.7944 38.1963 17.4768 38.1816 18.3297V38.9754C38.1914 39.8088 38.864 40.4814 39.7023 40.496Z" fill="white"/>
<path d="M31.9825 41.4854C32.8355 41.4951 33.5373 40.8079 33.5471 39.955V17.545C33.5471 16.6921 32.855 16 32.002 16C31.1491 16 30.457 16.6921 30.457 17.545V39.955C30.4619 40.7933 31.1394 41.4756 31.9825 41.4854Z" fill="white"/>
<path d="M47.4708 19.8893C46.6178 19.8795 45.916 20.5667 45.9062 21.4197V35.3199C45.916 36.1582 46.5935 36.8405 47.4366 36.8503C48.2896 36.86 48.9914 36.1728 49.0011 35.3199V21.4197C48.9865 20.5765 48.3091 19.899 47.4708 19.8893Z" fill="white"/>
<path d="M46.446 42.6453C46.3973 42.6892 41.3633 46.9099 31.9972 46.9099C22.748 46.9099 17.636 42.7184 17.5483 42.6404C16.9002 42.0897 15.9256 42.1628 15.3749 42.811C14.8194 43.4592 14.8925 44.434 15.5406 44.9896C15.7794 45.1943 21.5004 50 31.9972 50C42.4939 50 48.2149 45.1943 48.4537 44.9896C49.1018 44.434 49.1749 43.4592 48.6194 42.811C48.0687 42.1628 47.0892 42.0897 46.446 42.6453Z" fill="white"/>
</svg>
