<svg width="65" height="65" viewBox="0 0 65 65" fill="none" xmlns="http://www.w3.org/2000/svg">
<rect width="65" height="65" rx="5" fill="#02273F"/>
<g clip-path="url(#clip0_2003_7694)">
<path fill-rule="evenodd" clip-rule="evenodd" d="M22.1791 37.49C22.1791 39.47 20.5791 41.06 18.6091 41.06C16.6391 41.06 15.0391 39.46 15.0391 37.49C15.0391 35.52 16.6391 33.92 18.6091 33.92H22.1791V37.49ZM23.9591 37.49C23.9591 35.51 25.5591 33.92 27.5291 33.92C29.4991 33.92 31.0991 35.52 31.0991 37.49V46.42C31.0991 48.4 29.4991 49.99 27.5291 49.99C25.5591 49.99 23.9591 48.39 23.9591 46.42V37.49Z" fill="#E01E5A"/>
<path fill-rule="evenodd" clip-rule="evenodd" d="M27.53 23.15C25.55 23.15 23.96 21.55 23.96 19.58C23.96 17.61 25.56 16 27.53 16C29.5 16 31.1 17.6 31.1 19.57V23.14H27.53V23.15ZM27.53 24.96C29.51 24.96 31.1 26.56 31.1 28.53C31.1 30.5 29.5 32.1 27.53 32.1H18.57C16.6 32.11 15 30.51 15 28.53C15 26.55 16.6 24.96 18.57 24.96H27.53Z" fill="#36C5F0"/>
<path fill-rule="evenodd" clip-rule="evenodd" d="M41.8497 28.53C41.8497 26.55 43.4497 24.96 45.4197 24.96C47.3897 24.96 48.9997 26.56 48.9997 28.53C48.9997 30.5 47.3997 32.1 45.4297 32.1H41.8597V28.53H41.8497ZM40.0697 28.53C40.0697 30.51 38.4697 32.1 36.4997 32.1C34.5297 32.1 32.9297 30.5 32.9297 28.53V19.57C32.9297 17.59 34.5297 16 36.4997 16C38.4697 16 40.0697 17.6 40.0697 19.57V28.53Z" fill="#2EB67D"/>
<path fill-rule="evenodd" clip-rule="evenodd" d="M36.4899 42.85C38.4699 42.85 40.0599 44.45 40.0599 46.42C40.0599 48.39 38.4699 50 36.4899 50C34.5099 50 32.9199 48.4 32.9199 46.43V42.86L36.4899 42.85ZM36.4899 41.07C34.5099 41.07 32.9199 39.47 32.9199 37.5C32.9199 35.53 34.5199 33.93 36.4899 33.93H45.4499C47.4299 33.93 49.0199 35.53 49.0199 37.5C49.0199 39.47 47.4199 41.07 45.4499 41.07H36.4899Z" fill="#ECB22E"/>
</g>
<defs>
<clipPath id="clip0_2003_7694">
<rect width="34.03" height="34" fill="white" transform="translate(15 16)"/>
</clipPath>
</defs>
</svg>
