<svg width="65" height="65" viewBox="0 0 65 65" fill="none" xmlns="http://www.w3.org/2000/svg">
<rect width="65" height="65" rx="5" fill="#008ADA"/>
<g clip-path="url(#clip0_2003_7710)">
<path d="M46.8486 17H37.14C35.9529 17 34.9883 17.9646 34.9883 19.1518V34.9446C34.9883 36.1318 35.9529 37.0964 37.14 37.0964H46.8486C48.0358 37.0964 49.0004 36.1318 49.0004 34.9446V19.1518C49.0004 17.9646 48.0358 17 46.8486 17Z" fill="white"/>
<path d="M26.8603 17H17.1518C15.9646 17 15 17.9646 15 19.1518V46.4339C15 47.6211 15.9646 48.5857 17.1518 48.5857H26.8603C28.0475 48.5857 29.0121 47.6211 29.0121 46.4339V19.1518C29.0121 17.9646 28.0475 17 26.8603 17Z" fill="white"/>
</g>
<defs>
<clipPath id="clip0_2003_7710">
<rect width="34" height="31.5914" fill="white" transform="translate(15 17)"/>
</clipPath>
</defs>
</svg>
