<svg width="65" height="65" viewBox="0 0 65 65" fill="none" xmlns="http://www.w3.org/2000/svg">
<rect width="65" height="65" rx="5" fill="#FB4F64"/>
<g clip-path="url(#clip0_2003_7723)">
<path d="M32 46.2568C24.6779 46.2568 18.7432 40.3221 18.7432 33C18.7432 25.6779 24.6779 19.7432 32 19.7432C39.3221 19.7432 45.2568 25.6779 45.2568 33C45.2568 40.3221 39.3221 46.2568 32 46.2568ZM32 15C22.0593 15 14 23.0593 14 33C14 42.9407 22.0593 51 32 51C41.9407 51 50 42.9407 50 33C50 23.0593 41.9407 15 32 15Z" fill="white"/>
<path d="M32.7406 28.5175C32.7406 26.4499 34.416 24.7745 36.4836 24.7745C38.5512 24.7745 40.2266 26.4499 40.2266 28.5175C40.2266 30.5851 38.5512 32.2605 36.4836 32.2605C34.416 32.2605 32.7406 30.5851 32.7406 28.5175ZM32.7406 37.4828C32.7406 35.4152 34.416 33.7398 36.4836 33.7398C38.5512 33.7398 40.2266 35.4152 40.2266 37.4828C40.2266 39.5503 38.5512 41.2257 36.4836 41.2257C34.416 41.2257 32.7406 39.5503 32.7406 37.4828ZM23.7754 37.4828C23.7754 35.4152 25.4508 33.7398 27.5184 33.7398C29.5859 33.7398 31.2613 35.4152 31.2613 37.4828C31.2613 39.5503 29.5859 41.2257 27.5184 41.2257C25.4508 41.2257 23.7754 39.5503 23.7754 37.4828ZM23.7754 28.5175C23.7754 26.4499 25.4508 24.7745 27.5184 24.7745C29.5859 24.7745 31.2613 26.4499 31.2613 28.5175C31.2613 30.5851 29.5859 32.2605 27.5184 32.2605C25.4508 32.2605 23.7754 30.5851 23.7754 28.5175Z" fill="white"/>
</g>
<defs>
<clipPath id="clip0_2003_7723">
<rect width="36" height="36" fill="white" transform="translate(14 15)"/>
</clipPath>
</defs>
</svg>
